<!-- © FinOps-assessment contributors, MIT. Original vector preview of the committed synthetic demo report; no third-party content or PII. -->
<svg xmlns="http://www.w3.org/2000/svg" role="img" aria-labelledby="title desc" viewBox="0 0 920 500">
  <title id="title">Example FinOps-assessment HTML report preview</title>
  <desc id="desc">A report preview with summary cards, persona distribution, and sample findings for Microsoft 365, Azure, GitHub, and Azure DevOps.</desc>
  <defs><style>
    text{font-family:-apple-system,BlinkMacSystemFont,"Segoe UI",sans-serif;fill:#1f2328}.frame{fill:#fff;stroke:#d0d7de;stroke-width:2}.bar{fill:#f6f8fa}.card{fill:#f6f8fa;stroke:#d0d7de}.muted{fill:#57606a;font-size:15px}.h1{font-size:25px;font-weight:700}.h2{font-size:18px;font-weight:700}.value{font-size:30px;font-weight:700}.pill{fill:#ddf4ff;stroke:#0969da}.sev-high{fill:#cf222e}.sev-med{fill:#bf8700}.sev-low{fill:#1a7f37}.white{fill:#fff;font-size:12px;font-weight:700}.mono{font-family:ui-monospace,SFMono-Regular,Consolas,monospace;font-size:13px}
  </style></defs>
  <rect x="20" y="20" width="880" height="460" rx="18" class="frame"/>
  <rect x="20" y="20" width="880" height="52" rx="18" class="bar"/>
  <circle cx="50" cy="46" r="7" fill="#cf222e"/><circle cx="75" cy="46" r="7" fill="#bf8700"/><circle cx="100" cy="46" r="7" fill="#1a7f37"/>
  <text x="135" y="52" class="mono">examples/demo-report.html</text>
  <text x="52" y="118" class="h1">FinOps assessment report</text>
  <text x="52" y="146" class="muted">Generated by finops-assess · mode read-only · PII redaction on · synthetic demo tenant</text>
  <rect x="52" y="180" width="190" height="90" rx="10" class="card"/><text x="72" y="212" class="muted">Findings</text><text x="72" y="252" class="value">34</text>
  <rect x="260" y="180" width="190" height="90" rx="10" class="card"/><text x="280" y="212" class="muted">Rules fired</text><text x="280" y="252" class="value">23</text>
  <rect x="468" y="180" width="190" height="90" rx="10" class="card"/><text x="488" y="212" class="muted">Monthly savings</text><text x="488" y="252" class="value">$1,512.65</text>
  <rect x="676" y="180" width="172" height="90" rx="10" class="card"/><text x="696" y="212" class="muted">Principals</text><text x="696" y="252" class="value">11</text>
  <text x="52" y="322" class="h2">Worked findings</text>
  <rect x="52" y="344" width="796" height="42" class="bar"/><text x="72" y="371" class="h2">Rule</text><text x="312" y="371" class="h2">Signal</text><text x="675" y="371" class="h2">Action</text>
  <rect x="72" y="405" width="64" height="22" rx="11" class="sev-med"/><text x="104" y="421" text-anchor="middle" class="white">MED</text><text x="154" y="421" class="mono">M365.OVER_LICENSED_VS_PERSONA</text><text x="312" y="421" class="muted">SPE_E5 exceeds frontline persona needs</text><text x="675" y="421" class="muted">Consider SPE_F3</text>
  <rect x="72" y="442" width="64" height="22" rx="11" class="sev-high"/><text x="104" y="458" text-anchor="middle" class="white">HIGH</text><text x="154" y="458" class="mono">GH.COPILOT_INACTIVE_30D</text><text x="312" y="458" class="muted">0 accepted suggestions in 30 days</text><text x="675" y="458" class="muted">Verify and reassign</text>
</svg>
